# xmcd
#
# Track frame offsets:
# 150
# 10196
# 25046
# 44085
# 60540
# 77949
# 91553
# 109218
# 127659
# 142942
# 158021
# 176987
# 192564
# 208897
# 225481
# 243944
#
# Disc length: 3464 seconds
#
#
# Revision: 0
# Processed by: cddbd v1.5.2PL0 Copyright (c) Steve Scherf et al.
# Submitted via: FreeRIP 2.96 
#
DISCID=cd0d8610
DTITLE=Mims - Music Is My Savior
DYEAR=2007
DGENRE=Rap
TTITLE0=Intro
TTITLE1=It's Alright
TTITLE2=This Is Why I'm Hot
TTITLE3=Girlfriends Fav MC (feat. J. Holiday)
TTITLE4=Where I Belong
TTITLE5=Cop It
TTITLE6=Big Black Train
TTITLE7=They Don't Wanna Play (feat. Bun B and Seed)
TTITLE8=Like This
TTITLE9=Just Like That
TTITLE10=Without You (feat. Latoya Luckett)
TTITLE11=Superman
TTITLE12=This Is Why I'm Hot (Remix) (feat. Cham and Junior Reid)
TTITLE13=Doctor Doctor
TTITLE14=Don't Cry (Outro) (feat. Purple Popcorn)
TTITLE15=I Did You Wrong (Bonus Track)
EXTD=
EXTT0=
EXTT1=
EXTT2=
EXTT3=
EXTT4=
EXTT5=
EXTT6=
EXTT7=
EXTT8=
EXTT9=
EXTT10=
EXTT11=
EXTT12=
EXTT13=
EXTT14=
EXTT15=
PLAYORDER=
